<svg xmlns="http://www.w3.org/2000/svg" width="3333.333" height="1988" version="1.0" viewBox="0 0 2500 1491"><defs><linearGradient id="grad1" x1="0%" x2="0%" y1="0%" y2="100%"><stop offset="0%" stop-color="#243c54" /><stop offset="100%" stop-color="#101518" /></linearGradient></defs><path fill="url(#grad1)" d="M496.1 509.1c-1.3 2.1-2.9 3.5-3.6 3.3-.6-.3-1.8.2-2.5 1-.7.9-1.6 1.3-2.2 1-.5-.3-.6.6-.2 2.2.6 2.5.5 2.7-2 2.2-2-.4-2.6-.1-2.6 1.2 0 2.5 2.1 8 3 8 .4 0 .6.9.3 2-.3 1.2 0 2 .7 2 .9 0 1.1-1.4.7-5.2-.6-4.9-.6-5.1.7-2.7.8 1.5 1.2 4.1 1 5.8s0 3.1.5 3.1.8.8.7 1.7c-.4 2.3-3.4 2.5-5.7.2-1-1-2.7-1.9-3.6-1.9-1.5.1-1.4.4.6 2 1.3 1.1 2.9 2 3.7 2s1.4.7 1.4 1.5.5 1.5 1 1.5c.6 0 1 .7 1 1.5s.6 1.2 1.4.9c1.8-.7 2.9 2.6 2 5.9-.3 1.6-1.9 3.2-4 4.2-2.7 1.3-3.4 2.1-2.9 3.6.6 1.7.2 1.9-2.9 1.7-1.9-.1-3.3-.4-3.1-.6s-.4-1.3-1.4-2.3c-1.8-2-5.7-1.6-4.4.4q.45.9-.6.3c-.6-.4-.9-1.5-.7-2.4.6-1.9-.3-3.6-2.1-4-.7-.1-1.3.7-1.3 1.7 0 1.1-.4 2.2-1 2.6-.5.3-.6 1.3-.3 2.1.5 1.4.3 1.4-1.4.3-1.8-1.1-2.4-.9-4.6 1.5-2.6 2.8-2.7 6.9-.1 5.9.9-.3 1.2-1.3.7-3.2-.6-2.4-.5-2.5 1.1-1.2 1.3 1.1 1.6 2.3 1.1 4.5-.3 1.7-.7 4.3-.8 5.8-.2 2.3-.6 2.7-2.2 2.2-1.8-.5-1.9-.4-.2.6 1.7 1.1 1.6 1.3-.7 3.1-2.6 2-4.1 2.5-3.1.9.4-.7-7.2-3.6-8.3-3.1-.1.1-1-.5-1.8-1.4-1.8-1.8-3.4-2-3.4-.4 0 .7-.8.9-2.2.4-4.3-1.2-6.8-1.3-6.8-.2 0 2.5-9.4 4.9-11.4 3-.6-.6-2.8-1.1-6.8-1.5-1-.1-2.5-1.8-3.4-3.7-1.4-3-1.8-3.2-2.8-1.9-.6.9-2 1.7-3.1 1.9-2 .4-5.5-2.2-5.5-4.1s-8.9-2.5-10.7-.7c-.8.9-8.6.9-10.7.1-.9-.3-1.6-1.5-1.6-2.6 0-1-.4-1.6-1-1.3-.5.3-1-.1-1-.9 0-.9-.9-1.6-2-1.6s-2 .7-2 1.5-.7 1.5-1.5 1.5-1.5.4-1.5.9c0 2.2-4.2 2.3-6.1.2-2.3-2.5-4.9-2.8-4.9-.5 0 1.3-.4 1.2-2.8-.5-2.8-2-8.8-2.6-9.8-.9-.3.4-1.1.5-1.7.1-.8-.4-.8-.2.1.9 1 1.3.9 1.6-.8 2.1-1.3.3-2.4-.1-3-1.3-.6-1.1-1.8-1.7-3-1.5-1.1.2-2.2 0-2.5-.6-.6-.8 2.1-6.6 3.6-7.9.3-.3.8-1.3 1.2-2.3s1.1-1.6 1.6-1.2c1.7 1 2.4-1.8.8-3-1-.7-1.7-2-1.7-2.9 0-1-.5-1.4-1.1-1-.8.4-.9-.1-.4-1.5.4-1.3.1-2.8-.6-3.7-1-1.2-1.4-1.1-2.7.8-1.7 2.4-3.4 11-2 10.2.4-.3.8 0 .8.6s.4.9.9.5c.5-.3 1.2-.1 1.6.4.3.5-.2 1.4-1 1.8-.9.5-1.8 2.2-2.1 3.8-.7 3.9-1.1 4.2-2.9 1.9-.9-1-1.5-1.5-1.4-.9.3 2.2-.2 2.5-2 1.5-1.7-.8-2-.6-2.3 1.4-.2 1.8-.7 2.2-2.2 1.7-1.7-.7-1.7-.8-.2-2.3.9-.9 1.6-2.4 1.6-3.2 0-.9.6-2.5 1.2-3.6 1.4-2.2.3-5-2.1-5.8-.9-.3-1.2.7-1 3.5.3 4.1-.7 6.7-2.2 5.8-.5-.3-.6.1-.3.9.3.9.2 1.6-.4 1.6-1.8 0-2.1-2.9-.4-3.9 1.1-.6 1.6-2.2 1.7-4.8 0-3.1.4-3.9 2.2-4.1 2.2-.3 3.9-3.4 2.9-5-.3-.5.2-1.8 1-2.8.9-1 1.3-1.3.9-.6-.3.6.1 1.9 1 2.8s1.4 2.3 1.1 3c-.3.8-.1 1.4.3 1.4 1.6 0 2-2.8.5-4-2.9-2.5-.2-8 4-8 .9 0 1.5-.4 1.1-.9-.7-1.2-9.5-1-9.5.1 0 .5-.9.4-1.9-.2-1.7-.8-2.1-.5-2.9 2.3-.6 1.7-.9 4.5-.8 6.2.1 2.3-.3 3-1.6 2.9-1-.1-1.8.4-1.8 1.1s-.3 2.2-.6 3.2c-.5 1.5-.4 1.5.5.3.9-1.3 1.1-1.3 1.1.2 0 1-.5 1.8-1 1.8-.6 0-.9.3-.8.7.3 1.3-3.6 9.3-4.5 9.3-.5 0-.7-.6-.4-1.4.3-.7.1-1.8-.5-2.4s-.6-1.2.1-1.6c.6-.4 1.1 0 1.1.9s.5 1.3 1 1c1.4-.8-.8-4.7-2.3-4.2-.6.2-1.4 1.4-1.7 2.7-.6 2.7-1.9 3.4-3.8 2.1-1.3-.8-1.5-2.3-1.2-8.6.1-1.1-.4-2.1-1-2.3-.5-.2-.7-.8-.4-1.4.4-.6-.1-.8-1.2-.4-1.1.3-2.6.1-3.4-.4-1.3-.9-1.3-1 0-1s1.3-.2 0-.9c-.8-.6-1.8-.7-2.3-.4s-1.3-.1-1.9-.8c-.7-1.1-.8-.9-.6.6.2 1.2-.3 2-1.2 2-1.1 0-1.4 1-1.3 3.5.3 3.3.2 3.4-1.2 1.6-1.8-2.3-2-1.4-.4 1.6.8 1.6.8 1.9-.1 1.3-.9-.5-1-.2-.6 1.3.6 1.8.4 1.9-2.8 1.2-1.9-.4-3.7-.6-3.8-.4-.2.2-2 .5-4 .8-3.4.4-3.7.2-4.3-2.5-.4-1.5-1.2-2.7-1.8-2.6-.7.1-1.1-.5-.9-1.4.2-1.2-.5-1.7-2.3-1.7s-2.5.6-2.5 1.9c0 1.1-.7 1.9-1.5 1.9s-1.5.4-1.5 1c0 .5-.9 1-1.9 1-2.7 0-3.5 1.7-1.4 2.9 1.7 1 1.7 1-.2 1.2-1.1 0-3 .2-4.2.3s-2-.1-1.7-.6c.5-.8-1.6-1.2-4.6-1-2.3.2-7-1.9-6.4-2.9.3-.5 0-.9-.5-.9-.6 0-1-.3-1-.8.3-2-.3-3-2-3.5-1.4-.3-2-1.6-2.3-4.8-.2-2.4-.1-4.6.4-4.7 1.6-.7.8-2.2-1.2-2.2-1.1 0-2-.5-2-1.2 0-.9-.3-.9-1.2 0-1.5 1.5-2.8 1.5-2.8.1 0-.5.5-.7 1.1-.3.7.4 1 .1.7-.6-.9-2.8-2.8-2.2-2.8 1 0 2.7-.2 3-2 2-1.2-.7-1.7-1.6-1.3-2.7.5-1.2.3-1.4-.7-.8-.9.5-1.1.4-.6-.4.4-.6 1.2-.9 1.7-.6.5.4.9-.5.9-1.9q0-4.2-2.7-1.5c-.8.8-1.4.5-2.3-1.1-1.1-2-1.3-2.1-3.7-.5-3 2-5.3 1.3-5.3-1.7 0-2.8 3.4-5.1 6.1-4.3 1.3.4 1.7.2 1.4-.7-.7-1.8-8.6-1.8-10.4-.1-1 1.1-1.6 1.1-2.7.2-1.9-1.5-2.4-.9-3 3.7-.5 3.1-.3 3.6.6 2.4 1-1.3 1.1-1.3.6 0-.3.8-.9 2.3-1.2 3.2-.9 2.5-3.3 2.2-4.4-.5-1.2-3-1.2-1.2 0 4.1 1.1 4.5-.1 7.3-2.7 6.5-1.6-.6-8.3 2.7-8.4 4.1-.1.6-.2 1.8-.3 2.6-.2.8-.3 2.3-.4 3.2-.4 4-4.2 1.2-4.2-3 0-1.5.2-1.5 1-.2s1 1.3 1-.2c0-.9.6-1.9 1.3-2.1.9-.4.8-.8-.3-1.6-1.2-.8-1.3-1.4-.3-2.8.6-1 1.6-1.7 2.2-1.5.6.1 1.1-.3 1.1-.9 0-.5-.8-.9-1.8-.8-3 .3-3.5-.1-2.2-1.6 1-1.3 1.1-1.8.1-2.8-1-.9-1.1-.8-.5.8.7 1.8.6 1.8-.9.6-1.4-1.1-1.7-1.1-1.7 0 0 1-.3 1-1.2.1-1.7-1.7-5.8-1.5-6.5.3-.9 2.5.6 3.1 2.2.9.8-1 1.5-1.4 1.5-.7s-1 2.2-2.2 3.3c-1.7 1.6-2.2 3.1-2.1 6.3.1 4.9-1 6.7-3.9 6.2-1.2-.3-2.7 0-3.4.6-.6.5-1.6.9-2 .8-2.1-.3-2.6.2-1.4 1.6 1.4 1.7 1.4 1.7-1.8 2-1.4.1-2.6-.4-3-1.4-1-2.6-2.8-4-4.1-3.1-.7.4-2.2.5-3.2.3-1.5-.4-1.9 0-1.9 2.3 0 1.8-.3 2.5-1 1.8-.5-.5-.6-2.4-.1-4.6.7-2.8.5-4-.5-4.9-1.7-1.4-1.8-7.1-.2-8.7.9-.9.9-1.2 0-1.2-.7 0-1.2-.6-1.2-1.4 0-1.5-2.4-2.8-3.4-1.9-.3.4-.6 2.1-.6 4 0 3.4-.6 3.9-2.7 2.5-1.7-1-.8-7 1.4-9.4 1.6-1.8 1.6-1.9-.3-1.2-1 .4-2.4 1.1-3 1.6-1.9 1.4-3.7.5-6.2-3-2.1-2.9-2.8-3.4-4.9-3.1-.3 0-1-.6-1.5-1.5-1.3-2.4-2.8-1.9-2.8.9 0 1.6-.6 2.5-1.6 2.5-1.3 0-1.2.5.6 3.1 1.2 1.6 1.9 3.3 1.6 3.7-.4.3-1.1 0-1.6-.8-.8-1.3-1-1.3-1-.1 0 3.6-2-.9-2.5-5.6-.3-3.9-.1-5.6 1.1-6.7 2.4-2.5.6-1.9-3.7 1.1-2.7 1.9-3.8 3.4-3.6 4.8.1 1.1.8 1.9 1.4 1.8s.9.6.6 1.7c-.3 1.3 0 2 .8 2 1 0 1.1.3.3.8-.7.4-1.3 1.6-1.6 2.7-.2 1.4-1.1 2-3.1 2-2.3-.1-2.7.3-2.7 2.7 0 1.5-.5 3-1.2 3.4-.7.5-.9.2-.5-.9s.2-1.4-.9-1c-.7.3-1.4.9-1.4 1.4s-.6.8-1.2.6c-.8-.1-1.2.6-1.1 1.8.1 1.1 0 1.4-.3.7-.8-1.7-2.4-1.5-2.4.3 0 2.3-6.2 1.9-8.3-.6-1.5-1.7-2.6-1.9-7.8-1.5-3.3.3-6.4.8-7 1.1-.5.4-.9 0-.9-.7-.1-1-.4-.9-1.3.2-1.7 2.2-4 1.9-5.2-.8-.5-1.2-1.3-2.2-1.7-2.2-.5 0-.8-.7-.8-1.5s-.9-1.5-2-1.5-2 .6-2 1.4c0 1.5-5.5 2.7-6.8 1.4-1.2-1.2-7.5-1.6-9-.5-.9.8-1.4.5-1.8-1-1-3.7-8.9-5.8-10.1-2.7-.3.8-1.2 1.3-2 1-.8-.4-2-.3-2.5 0-.6.4-3.1.8-5.6.9-3.7.2-5-.3-6.9-2.3-1.2-1.3-2-2.8-1.7-3.3s-.4-.9-1.5-.9c-1.2 0-2.1.6-2.1 1.3s-1.5 1.8-3.2 2.6c-3 1.1-3.1 1.3-1.3 2.1 1.7.7 1.6.9-1.5 1.7-2.7.7-3.7.7-4.3-.4-.4-.7-1.2-1.3-1.7-1.3-.6 0-1 176.7-1 478v478h2500v-372.5c0-241.6-.4-372.5-1-372.5-.5 0-1.6 1.6-2.4 3.5-1.2 2.7-2.1 3.5-4 3.5-2.3 0-3.1-.9-2.7-3.3 0-.4-.8-.7-1.9-.7-1.5 0-2 .7-2.2 2.7-.2 3.6-.1 4.4.3 6.7.3 1.6-.2 1.9-3.4 1.9-2 0-4-.3-4.4-.6-.3-.4-1.2-.2-1.9.4-1.8 1.5-5-.5-5.8-3.6-.8-3-2.2-3.3-3.1-.6-.5 1.6-1.4 2-4.5 1.8-2.2-.1-3.4-.4-2.8-.8s.2-.9-1.1-1.4c-1.2-.4-2.1-1.5-2.1-2.6 0-1.5-.5-1.9-1.9-1.4-1 .3-2.3-.1-3-.9-1.3-1.5-4-1.1-5.3.8-.6.8-1.1.7-1.7-.3-.7-1.1-1.1-.9-2 .8-.7 1.2-1.6 1.9-2 1.7-.4-.3-2.4-.6-4.4-.8-2.1-.1-3.7-.6-3.7-1s-.7-.5-1.5-.2c-.9.4-1.5 0-1.5-1 0-.9-.8-1.6-2.1-1.6-1.1 0-1.7-.5-1.4-1 .3-.6-.1-1-.9-1s-1.8-.5-2.2-1.2-.3-.8.4-.4 1.2.3 1.2-.3c0-1.5-3.3-3-5.6-2.7-1 .2-2.3-.3-2.9-1-.5-.7-2.2-1.5-3.7-1.8-1.5-.2-4.2-1.3-5.9-2.3-2.4-1.3-3.3-1.5-3.6-.6-.3 1-1 1-2.5.2-1.1-.6-2.6-.8-3.4-.5s-1.4.1-1.4-.4c0-.6-.4-1-1-1-.5 0-1 .7-1 1.5s-.4 1.5-.8 1.5c-.5 0-1.5 1.1-2.2 2.5-1.1 2.1-1.6 2.3-3.4 1.2-1.2-.6-2.7-1-3.4-.8-.8.1-2-.3-2.9-1-.8-.7-2.4-1.4-3.5-1.6-2.2-.3-5.5-2.4-5.7-3.6 0-.4-.1-1.2-.1-1.8s-.5-.9-1.1-.7-1 .7-.9 1.2c.3 1.4-2.3 2.6-5.5 2.5-2.9-.2-2.9-.2.5-.8 3.4-.7 3.4-.7 1-1.5-1.4-.5-4-2-5.7-3.4-2.2-1.6-3.9-2.2-5-1.7-3.1 1.3-8.7 1.6-10.8.6-2.7-1.3-5.8-2.4-7-2.6-.5 0-.9-.6-.8-1.3.5-1.9-3.1-1.4-5 .8-.9 1.1-2.3 2-3 2-.8 0-2.2.9-3.2 2-1.3 1.5-2.1 1.7-3.1.9-.7-.6-2.2-.8-3.4-.4-2.3.7-5-1.4-5-3.9 0-.9-.8-1.6-1.9-1.6s-2.2-.6-2.4-1.3c-.3-.7-.6-.4-.6.6-.1 1.3-.7 1.7-2.3 1.5-1.8-.2-2.3.2-2.2 1.9.2 2.9-2.1 3-3.8.3-1.4-2.1-5.2-2.7-6.3-.9-.4.6.3 1.3 1.6 1.6 2.2.6 2.2.7.3 1.4-3.2 1.3-7.4 1-7.4-.5 0-2.1-2.6-4-3.3-2.3-.6 1.5-6.6 2.1-8.5.8-.7-.4-1.5-1.7-1.6-2.7-.3-1.5-1.1-1.9-4-1.8-2.3.1-3.6-.3-3.6-1.2 0-1.9-2.1-2.9-3-1.4-1 1.6-4.1.6-3.8-1.2.2-.7-.7-1.4-1.9-1.6-1.3-.2-2.3.1-2.3.7 0 .7-2.4 1.1-5.9 1.1-4.1 0-6 .4-6.4 1.4-.6 1.4-10.2 6.6-12.4 6.6-.7 0-1.3-.9-1.3-2 0-2.1-1.5-2.7-2.5-.9-.4.5-1.8 1.4-3.1 1.9s-2.3 1.5-2.2 2.1c.2.7-1.3 1.6-3.2 2-3.8.9-6.4.4-5.6-1 .9-1.4-3.6-3.7-6.2-3.3-1.8.3-2.3.8-1.9 2.4.4 1.3-.2 2.8-1.7 4.2-1.3 1.1-2.6 2.8-2.9 3.6s-.6-.4-.6-2.7l-.1-4.2-3.2 1c-4 1.1-4.8 1.1-4.7.1.4-2.1-.4-3-2.8-3.7-1.5-.3-3-1.1-3.3-1.5-.3-.5-2.5-1.2-4.8-1.5-2.8-.3-4.1-.1-3.7.5 1.3 2.2-1.2.8-3.9-2.1-2.6-2.8-3.4-3-8-2.7-2.8.2-5.4.7-5.8 1.2-.4.6-1.3.4-2.2-.4-.9-.7-1.4-1.5-1.2-1.8 1.1-1-3.9-3.9-6.3-3.6-1.4.1-3-.4-3.6-1.3-.9-1.1-1.4-1.3-1.9-.5-1 1.7-3.6 1.5-3.6-.2 0-1.9-4.7-2.7-5.4-.9-.4 1-1.9 1.3-5.6 1-4.3-.4-5.3-.2-6.5 1.7-.9 1.1-1.9 2.1-2.3 2.1-1.5.1-7.2 3-7.2 3.7 0 .5-.9.8-2 .8-1.3 0-2-.7-2-2 0-1.1-.5-2-1-2-.6 0-1.8.9-2.7 2-2.3 2.6-3.2 2.5-4.3-.6-.9-2.3-1.5-2.6-4-2-2.2.4-3 .2-3-.8 0-1.7-2.7-2.9-3.2-1.4-.3.7-1.2.9-2.2.5-1.3-.5-1.7-1.4-1.4-3.2.4-1.7.1-2.5-.9-2.5-.7 0-1.6-.6-1.9-1.4s-1.5-1.1-2.9-.8c-1.6.3-2.7-.1-3-1-.4-1-2.2-1.5-5.2-1.7-2.5 0-4.9-.4-5.3-.6-.5-.3-1.1-.1-1.5.5-.3.5-1.7 1-3 1-1.8 0-2.6.7-3.1 2.4-.3 1.4-1.3 2.8-2.2 3.2-3 1.4-7.6 1-9-.9-1-1.3-1.8-1.5-3.2-.7-1 .5-3.2.7-4.9.4-1.9-.4-3.9-.1-5.3.8-3.9 2.5-7.1 2.9-9 1.1-1-.9-1.9-1.4-2.1-1.2-.1.2-1 1.7-1.9 3.4-1.7 3.1-5.4 4.3-8.6 2.9-2.8-1.2-3.6-1.1-5.4.9-1.6 1.7-1.9 1.8-3.3.4-.8-.9-1.5-2.3-1.5-3.1 0-1-.9-1.6-2.5-1.6-1.4 0-2.8-.7-3.2-1.6-.3-.8-1.2-1.3-1.9-1s-1.6.1-2-.5c-.3-.6-1.2-.8-1.9-.6-.6.3-1.9-.3-2.8-1.4-1.9-2.1-3.7-2.5-3.7-.8 0 .7-.9.9-2.2.5-4-1.2-6.3-1.2-7.7.2-.7.7-2.7 1.6-4.3 1.9s-2.6.8-2.4 1.1c.8.7-1.3 4.2-2.4 4.2-.6 0-2-1-3.2-2.3-1.3-1.2-3-2.2-3.8-2.2-.8-.1-1.4-.6-1.3-1.3.2-.7-.4-.9-1.4-.5s-1.4.2-.9-.5c.3-.6.2-1.3-.4-1.7s-.8-1-.5-1.5c.3-.4-.2-1.3-1-2-1.2-1-1.6-.9-2.1.4-1.2 3.1-8.4 1.1-8.4-2.3 0-.6-1-1.2-2.2-1.3-6.5-.4-8.1-.3-8.5.8-.3.7-1.7.9-4.3.4-2.4-.4-3.7-.4-3.4.2.4.5-.8.2-2.5-.7-1.8-.9-2.9-2-2.6-2.5.4-.6.1-1-.4-1-.6 0-1.1-.7-1.1-1.5s-.9-1.5-2-1.5-2 .6-2 1.4c0 1.4-2.4 2.9-5 3-2.2.1-2.5-3.3-.3-4.1 1.7-.7 4.8-3.2 4.1-3.4-.2-.1-1.3-.3-2.5-.4-1.6-.2-2.3.3-2.3 1.6 0 2.3-3.6 4.4-4.6 2.8-.3-.6-.3-1.4.2-1.8 1.1-.7 1.1-4.7.1-5.7-1.2-1.2-.8-2.2 1.1-2.7 1.6-.4 1.6-.5 0-.6-1 0-1.8-.6-1.8-1.2 0-.5-.6-.7-1.2-.4-.7.4-.4-.2.7-1.2 2.1-1.9 2.3-2.7 1.1-5.4-.4-.9-.6-2-.5-2.5.4-2.1-.2-3-2.1-3-1.1 0-2 .4-2 .9s-.6.4-1.4-.2c-2-1.7-1.6.8.8 4.4 1 1.5 1.2 2.4.5 2-.9-.6-1.1-.3-.6.8.8 2.2-1.1 2.2-4.1.1-2.9-2-2.8-1.1.3 2.2 1.4 1.5 2.5 2.1 2.5 1.4s.3-1 .6-.7c1.1 1-1.8 3.8-3.3 3.3-.7-.3-1.3-.1-1.3.4 0 .6-.5 1-1.1 1-.7 0-.9-.9-.5-2.3.4-1.7.1-2.4-1-2.4-.8 0-1.3.6-1 1.4.7 1.8-2.1 1.6-3.2-.3-.8-1.4-1-1.4-2.1 0-.9 1-1 1.6-.3 1.6.6 0 .9.6.6 1.4s0 1.7.6 2.1c.6.3 1 .3.9-.2-.4-2.2.3-3.1 2-2.6 1.3.3 1.8 1.1 1.4 2.1s-.3 1.4.2 1c.4-.4 1.4-.3 2.2.4 1.1.9 1.3.8 1.1-.2-.2-.7.3-1.5 1-1.7.6-.3 1.2.3 1.2 1.2s-.9 1.9-1.9 2.2c-1.1.3-2.1 1.3-2.4 2.4-.3 1.2-.1 1.7.5 1.3s.9-.1.6.7-1 1.5-1.6 1.5c-.7.1-1.9.2-2.7.3-.8 0-1.5.8-1.5 1.6 0 .9-.9 1.5-2.1 1.5-1.8 0-2.1-.4-1.6-2.9s.3-2.8-1.3-2.4c-1.1.3-2 .9-2 1.3 0 .5-1 .6-2.2.2-1.4-.3-1.9-.2-1.4.6.4.7.1 1.2-.6 1.2-.9.1-.7.5.4 1.4 2.1 1.5 1.3 2.6-1.8 2.6-1.7 0-2.5-.7-3-2.5-.7-2.6-1.9-3.1-4.4-1.5-1.1.7-1.7.5-2.1-.8-.4-1.1-.9-.3-1.3 2.5-.7 4.1-2.8 6.8-5.6 7.4-1.8.4-7-3.9-7-5.8 0-.7-.9-1.3-1.9-1.3-1.1 0-2.2-.4-2.5-.9-.4-.5.4-.7 1.6-.5 1.4.3 1.1-.1-.8-.8-1.9-.8-2.9-1.8-2.6-2.7.4-1.1-.1-1-1.9.2-2.9 2.1-4.8 2.1-6.9.2-1.5-1.4-4.5-2.3-8.3-2.4-1.1-.1-1.5-.5-1.1-1.3.5-.7.2-.9-.9-.5-.9.3-1.8 0-2.1-.9-.8-2-4.6-1.8-4.6.3 0 1.4-.2 1.5-1.7.1-2.6-2.2-4.9-2.8-6.1-1.6-.6.6-1.2.6-1.6-.1-1.1-1.8-2.6-1.3-2.6.9 0 1.1-.7 2-1.6 2-.8 0-1.3.4-1 .9.4.5.1 1.1-.5 1.3s-1.3 1.6-1.4 3.2c-.5 3.9-1 4.1-3.5 1.6-1.8-1.8-1.9-2.4-.9-3.1 1.9-1.1-1.6-4.8-4-4.2-1.1.3-2.4-.3-3.2-1.4-.9-1.2-2.8-1.9-5.4-2-3.1-.1-4.5-.8-6.2-3l-2.3-2.8-1.5 2.2c-1.4 2-1.9 2.1-4.3 1.1-1.5-.6-3.6-2.1-4.7-3.4-1.1-1.2-3.9-2.8-6.3-3.5-3.7-1.1-4.5-1-5.4.2-.8 1.1-.9 1.1-.5-.3.4-1.2-.3-1.9-2.4-2.7-1.8-.6-2.7-.6-2.4-.1.4.6.2 1-.4 1-.5 0-1.4-.7-1.9-1.6s-1.5-1.4-2.3-1.2c-2 .7-4.9-1-4.9-2.8 0-.8-.5-1.2-1-.9s-1 .1-1-.4c0-.6-1.8-1.9-4-2.8-4.4-1.9-4.7-2.5-2.5-4.3s1.9-3.7-1-6.6c-2.3-2.3-5.3-2.5-4-.3.4.5.1.9-.5.9s-.8.5-.4 1.2.3.8-.4.4-2.8-.2-4.9.3c-2.8.8-3.9.7-4.5-.2-.5-.8-.8-.7-.8.4 0 1.9-2 2.9-5.6 2.9-1.4 0-3.9.7-5.5 1.6-2.4 1.2-3.4 1.3-4.5.3-.8-.6-1.4-.8-1.4-.5 0 .4-.9.2-2-.4-2.7-1.4-2.5-3.1.3-2.7 1.2.2 1.6.2 1 0-1.4-.5-1.8-2.2-.5-2.4 4.6-.5 6.9-.5 7.7 0 1.8 1 5.6.8 4.5-.3-1.6-1.6-1.2-2.6 1-2.6 1.1 0 2-.5 2-1.1 0-.5-.4-.8-.8-.5s-2.4.1-4.4-.3c-1.9-.5-5.3-.5-7.4-.2-3.2.5-3.8 1-3.6 2.7.1 1.2-.4 2.7-1.2 3.3-1.2 1-2.1.8-4.9-1.3-1.9-1.4-3.9-2.6-4.5-2.6-1.7 0-1.5-1 .5-3.2 1.3-1.5 1.4-2.3.5-4.3s-.9-2.3.3-1.8c.9.3 1.5-.1 1.5-.8 0-.9.3-1 .8-.4 1.1 1.5 3 1.7 5.3.4 2.1-1.1 2-1.1-.6-2.5-3.1-1.6-6.9-1.9-6-.4.3.5-.2 1.1-1.2 1.2-1 0-2.2.2-2.8.3-.5.2-1.6.3-2.3.4-.6 0-1.1.4-1.1.8.4 2.5-.2 3.3-1.8 2.5-1.2-.7-2.4-.5-3.9.5-1.3.8-2.7 1.2-3.2.9-.6-.3-1.5.1-2.2.9-.7.9-2.9 1.5-5.1 1.5s-3.9.4-3.9 1c0 .5-.6 1-1.4 1s-1.6.5-1.8 1.1c-.3 1-4.8-.5-14.5-4.8-1.9-.8-1.6 1.8.5 3.4 1.5 1.3 1.5 1.4-1 .9-1.5-.4-3-.1-3.3.4-.4.6-1.2 1-1.8.9-2.1-.4-6.7 1.3-6.1 2.2.3.5 0 .9-.6.9s-.8.4-.5 1c.3.5.1 1.8-.4 2.9-1.1 1.9-1.1 1.9-4.8 0-2.1-1.1-4.3-1.7-5-1.4-1.6.5-1.7-1-.2-3.6.8-1.6.7-2.6-.5-4.4-1.4-2.2-1.4-2.3.7-1.7 1.9.5 2 .3.9-1.1-1.5-1.8-5.2-1.9-5.2-.1 0 .6-1.2 1-2.7.8-1.6-.2-2-.1-1 .2.9.3 1.7 1 1.7 1.5 0 .9-.5 1.1-3.2 1.3-.7.1-2 .8-2.8 1.7s-4 2.6-7 3.9c-3 1.2-5.8 2.6-6.1 3.1-.8 1.3-12.4 1.9-15.9.9-3.2-.9-4.1.5-1.9 2.7.9.9.8 1.6-.4 2.7-.8.9-1.7 2.1-1.9 2.8-.4 1-1.9.6-5.6-1.3-2.9-1.5-5.2-2.3-5.2-1.7s-1.3.7-3.2.2c-1.8-.4-6.3-.7-9.9-.6-6.1.1-6.7-.1-7.3-2.1-.3-1.3-.9-1.8-1.3-1.2-1.3 1.6-3.3 1.6-3.9 0-.3-.8-1-1.3-1.4-1s-1-.9-1.4-2.5c-.4-2.1-1.1-3-2.5-3-1 0-2.4-.7-3.2-1.6-.7-.8-2-1.4-2.9-1.1-.8.2-2.1-.2-2.8-1-.7-.7-1.7-1.1-2.3-.8-.5.4-.9.1-.9-.4 0-.6-.9-1.1-2-1.1s-2 .5-2 1.1c0 .8-.4.8-1.3.1-.7-.6-2.7-1.4-4.5-1.7-2.4-.4-3.2-.2-3.2 1 0 .8-.5 1.5-1 1.5-.6 0-1.5 1.1-2.2 2.4-1.5 3.4-3.8 4-6 1.7-1-1.1-2.5-1.8-3.3-1.5-.8.4-1.5.1-1.5-.6s-.7-1-1.5-.7c-.8.4-1.7.1-2.1-.5-.5-.7-.2-.8.7-.4.8.4.5 0-.5-.8-1.1-.9-2.4-1.6-2.8-1.6-.5 0-1.3-1.2-1.9-2.8-.9-2.4-1.1-2.5-2-.9q-1.05 1.65-3.9 1.5c-1.6-.1-2.7-.4-2.5-.6s-.5-1.3-1.5-2.5c-2.4-2.5-10.6-3.2-11.4-1-.4 1-1.1 1.1-2.3.5-1-.5-3.4-.7-5.3-.5-3.2.3-3.7 0-5.4-3.2-1.2-2.2-2.6-3.4-3.5-3.2s-1.5.9-1.3 1.5c.1.7-.3 1.2-.8 1.2-.6 0-2 .9-3.2 2-1.6 1.4-1.8 2-.7 2.1.8 0 .2.5-1.3 1.1-2.1.7-3.1.6-4.3-.5-.8-.9-2.3-1.3-3.4-1-1.3.3-2.6-.4-4.1-2.5-2.6-3.5-5.6-4.7-6.4-2.5-.3.8-1 1.1-1.6.8-.5-.3-1.5-.3-2.1.1-.8.4-.7.9.2 1.5 1 .6.6.9-1.3.9-2 0-3.2-.8-4.2-2.8-.8-1.5-1.5-2.4-1.6-1.9 0 .4-1.3.1-2.9-.8-2.7-1.3-3.1-1.3-4.6.1-1.3 1.3-1.8 1.4-3.1.3-1.3-1-1.6-.9-2.1 1-.3 1.4-.9 1.8-1.7 1.3-2.1-1.6-9.5-1.2-10.7.6-.9 1.5-1 1.5-.5 0 .3-1-.2-1.8-1.5-2.1-1-.3-1.9-1.3-1.9-2.4-.1-2.5-2.1-4.7-4.7-5.1-1.6-.2-2.3.2-2.3 1.2 0 1.6-1 2-4 1.7-1.3-.2-1.3-.1 0 .8 1.2.8.9 1.2-1.5 2.2l-3 1.2 3.5.7q3.6.75 1.2.9c-1.3 0-3.2.6-4.3 1.1-1.4.8-1.9.7-1.9-.1s-.5-.7-1.7.2c-1.5 1.2-1.6 1.2-.9-.6.4-1.1.4-1.6 0-1.3-.4.4-1.5.3-2.5-.2q-1.8-1.05-2.4 0c-.9 1.5-3.4 1.2-5.2-.5-1.3-1.3-1.9-3-2.2-5.8-.1-.4-1.2-.7-2.5-.7s-2.7-.6-2.9-1.3c-.3-.6-.6-.1-.6 1.2-.1 1.9-.5 2.2-2.5 1.7-2.8-.7-4.6 1.2-2.5 2.5 1.1.7 1 .9-.4.9-1 0-1.5.5-1.2 1 .4.6-.5.5-1.9-.2-1.4-.6-2.6-1.7-2.6-2.5 0-.9-1.3-1.2-4.9-1.1-3.4.2-4.7.7-4.4 1.5.3.7 1.1 1.3 1.9 1.3 3.1 0 1.1 1.9-2.8 2.7-4.1.9-4.3.8-5.1-1.9-1-3.6-2.4-4.3-3.7-1.9-.8 1.5-1.8 2-4 1.7-3.5-.4-4.8.8-2.4 2.2 1.4.8 1.4 1 0 2.5-1.9 1.8-4.6 1.3-7.7-1.6-1.3-1.2-2.7-2.1-3.1-1.9-.5.1-.8-.6-.9-1.5 0-1.1-.3-1.3-.6-.6-.3.9-1 1-2.3.3-1.4-.7-2.3-.6-3.6.7s-1.9 1.4-2.2.5c-.6-1.9-2-1.4-2.7.9-.5 1.4-1 1.7-1.8 1.1-.7-.5-3.2-1-5.7-1-7.9 0-8.3-.1-7.6-1.8.3-.8.2-1.2-.4-.9s-1 .1-1-.5c0-.5-1.4-2.3-3.2-3.9-3.2-2.8-3.2-2.9-2.1-7.7.7-2.7 1.5-7.2 1.8-10.1l.7-5.2 46.1-.1c35.3 0 46.4-.3 47.3-1.3.7-.7 1.4-5.2 1.6-10.2l.3-9-13.5-.6c-22.4-1.1-54.3-2.2-56.9-2.1-1.3.1-3-.3-3.7-.9-1.1-.9-1.4-.8-1.4 0 0 .7-.5.9-1 .6-.6-.4-5.4-.8-10.7-1-5.3-.3-9.9-.7-10.2-1.1-.3-.3-.6-3.1-.6-6.2 0-5.2-.2-5.7-2.3-6-4.5-.7-6.6 3.5-4 7.8 2.4 3.8.1 4.4-17.9 4.4-15 0-72.9-1.3-77.8-1.7-1.8-.2-2 .6-2.3 9.2-.1 5.2.2 9.9.7 10.4s9.2 1.5 19.3 2.3c10.1.7 21.2 1.5 24.8 1.8s13 1.1 21 1.7c20.9 1.5 25.4 1.9 25.9 2.5 1 .9 2 14.9 1.5 19-.5 3.7-.8 4-3 3.6-1.3-.2-2.4 0-2.4.5s-.7 1-1.5 1c-1.4 0-1.9-1-1.6-2.9.1-1.1-4.1-3.1-6.6-3.3-2.1-.1-2.7.7-2.4 2.7.2 1.3-2.7.9-3.3-.5-.3-.6-.3-.2 0 1 .3 1.3.1 2.3-.5 2.3s-1.1-.4-1.1-.9c0-1.3-5.1 0-5.6 1.5-.2.8-.6 2.1-.9 2.9-.5 1.8-3.5.9-3.5-1.1 0-1.3-3-2-5.5-1.4-.5.1-1.6.3-2.2.3-1.8 0-1.6 1.4.3 2.5 2.5 1.4.9 2.9-3.5 3.4-2.6.2-3.7 0-3.4-.8.2-.6-.7-2.4-2.1-4-2.3-2.6-2.5-2.7-2.1-.7.4 2.5-2 3.9-2.9 1.7-.3-.9-1-1.2-1.6-.9-.5.3-1 .1-1-.4 0-2-4.7-1.2-5.3.8-.3 1.2-1.2 1.8-2.3 1.7-1.1-.2-2.3 0-2.9.4-.5.5-1.9 1-3 1.2-1.1.1-2.6 1.1-3.3 2-1.3 1.8-6.4 1.6-8.9-.5-.7-.5-1.3-.6-1.3-.3 0 .4-.6.1-1.4-.6s-1.2-1.6-.9-2.1c.2-.4-.9-1.2-2.6-1.8s-3.1-1.5-3.1-2-.5-.9-1.1-.9c-.5 0-.7.5-.3 1.2s.3.8-.4.4-1.2-1.4-1.2-2.2c0-1.6-1.6-1.9-2.5-.4-.4.7-1.4.3-2.4-.9-1-1.1-2.1-1.8-2.4-1.5s-.8-.9-1.2-2.6c-.5-2.4-1.1-3.1-2.5-2.7-1 .3-2.1-.1-2.4-.8-.2-.7-2.3-1.6-4.5-2s-4.5-1.3-5.1-2c-.7-.8-2.9-1.2-6-1.1-2.8.1-5-.1-5-.6 0-.4-.4-.8-1-.8-.5 0-1 .9-1 2.1 0 1.1-.4 1.8-.9 1.5-.5-.4-1.5.7-2.2 2.3-1 2.1-1.9 2.8-3.4 2.5-1.1-.2-3.2-.5-4.7-.6-1.9-.2-2.8-.8-2.8-2 0-1-.4-1.8-1-1.8-.5 0-1 .5-1 1 0 .7-.6.7-1.9.1-1-.6-2.2-.7-2.6-.3-.5.4-.5-.1-.2-1.1.7-1.9-1.1-6.7-2.5-6.7-.4 0-.8.7-.8 1.5s-.5 1.5-1 1.5c-1.7 0-6.8-2.9-7.2-4-.2-.6-1-1.2-1.8-1.3-.8-.2-2.1-.6-2.8-1.1-.7-.4-1.9-.3-2.7.4-.8.6-1.9.9-2.4.6-.5-.4-1.2-.3-1.5.2s-2 .7-3.8.6-4.1.2-5.1.8c-1.3.6-1.7.6-1.3 0 .3-.5-.1-1.2-.9-1.6-.8-.3-1.5-1.2-1.5-2.1 0-.8-.5-1.5-1.1-1.5-.5 0-.8-.4-.5-.8.2-.4-.4-.9-1.5-.9-1-.1-1.9.3-1.9.8s-1.1 1.5-2.5 2.1c-2.9 1.3-3.2 2.5-.7 3.1 1.2.3 1 .5-.8.7-1.4.1-3.3.3-4.2.5-1 .2-1.8-.1-1.8-.7s-1.2-.8-2.8-.5c-2.1.4-3.3 0-4.5-1.4-.9-1-1.7-2.3-1.7-2.7s-1.1-1.2-2.5-1.9c-1.4-.6-2.3-.8-2-.3.8 1.2-1.6 1.8-7.6 1.8-8.5.1-8.7.1-10.4 1.9-1.6 1.6-1.8 1.5-3.6-.8-1-1.3-1.9-2-1.9-1.5s-.6.4-1.2-.2c-.7-.5-2.4-.9-3.8-.8-1.8.1-2.6.7-2.8 2.5-.4 2.3-2.4 5.1-3.6 5.1-.3 0-.6-.9-.6-2.1 0-1.5-.4-1.9-1.6-1.5-4.6 1.8-6.4 1.8-6.4.1 0-1.1-.5-1.5-1.5-1.1-.8.3-1.5.2-1.5-.3 0-.8-1.5-1.1-4.5-1.1-4.2.1-6.1.5-7.3 1.7-.8.7-1.8 1.1-2.3.7-.5-.3-2.2-.8-3.7-1-1.5-.3-3.1-.9-3.7-1.5-.5-.5-2.2-.9-3.8-.9s-2.6-.4-2.2-1c.3-.6-.1-.7-1-.4-1.2.5-1.6.2-1.3-1.2.2-1.4-.4-1.9-2.4-2-2.1-.2-2.8.2-2.8 1.4 0 1-1.7 2.5-4 3.6-2.9 1.4-3.7 2.2-3 3.1.8.9.6 1.4-.6 1.9-2.2.8-2.6.8-1.9-.4.3-.5 0-.7-.8-.4s-2.1-.2-3-1c-.9-.9-2-1.6-2.5-1.6s-1.5-.7-2.2-1.5c-1-1.2-1.5-1.3-2.1-.4-.9 1.5-5.9-3.2-5.9-5.6 0-.8-.5-1.5-1.1-1.5-.5 0-.7.6-.3 1.2.5.8.1.7-1-.1-1.6-1.4-1.6-1.6-.2-2.7.9-.6 1.6-1.5 1.6-1.9 0-.5-.9 0-2 1-2.8 2.5-5.3.5-3.9-3.2.5-1.4.7-2.8.5-3.1-.3-.2-.8.7-1.2 2.2-.8 3.4-2.8 3.4-2.1 0 .2-1.4.1-2.2-.3-1.7-.5.4-1 2.1-1.2 3.8-.2 2.1-.8 3-2 2.9-1-.1-1.6.2-1.3.6s-.2 1.3-1 2c-1.2 1-1.5.9-1.6-.6-.1-1.4-.3-1.3-.8.5-.4 1.5-1.6 2.6-3.1 2.8-4.1.7-4.5.8-5.7 1.6-.7.5-1.3.5-1.3 0 0-.4-.5-.1-1 .7-.9 1.3-1.2 1.3-2.3-.1-.6-.9-2.1-1.4-3.2-1.2-1.1.3-3.6.6-5.5.7-1.9.2-4.8.6-6.5 1.1-1.6.4-2.7.4-2.3 0 .9-1-1.6-3.5-3.6-3.5-.8 0-1.8-.5-2.1-1-.3-.6-1.4-1-2.3-1-1 0-3.5-1-5.7-2.1-2.5-1.4-4.1-1.7-4.3-1-.3.8-.9.8-2.4 0-1.1-.6-2.9-.9-3.9-.6-1.1.3-1.9 0-1.9-.6 0-.7-.8-.3-1.6.8-1.4 1.9-1.6 1.9-2.5.2-1.9-3.3-3.2-1.9-2.6 2.8.6 3.9.4 4.5-1.2 4.5-1.8 0-3.1-2.6-3.1-6 .1-1.1.4-1 1.5.4.8 1.1 1.5 1.5 1.5.9s-.6-1.6-1.4-2.3c-1.8-1.4-1-4 1.2-4 .8 0 1.3-.3.9-.6-.3-.3-2.2-.1-4.1.6-2.5.8-3.6 1.8-3.6 3.1 0 1-.6 1.9-1.3 1.9-2.2 0-6.7-2.4-6.7-3.7 0-2.1-2.2-2.7-3.2-.9-.9 1.6-1.1 1.6-2.3-.1-.7-1-1.7-1.5-2.1-1-.4.4-1.8-.3-3.1-1.5-2.5-2.3-4.7-2.5-17.3-1.3-5.1.5-5.6.4-7.5-2.2-1.9-2.8-1.9-2.8 0-1.4 1.7 1.2 1.6 1.1-.1-.8-2.2-2.3-4.4-2.2-4.4.4 0 1.5-2.1 2.1-11.1 3-6 .6-6.8.5-7.3-1.1-.3-1.1-1.7-2.4-3-3-2-.9-2.3-.9-1.9.2.3.8 0 1.4-.6 1.4-2.8 0-5.4 2.1-3.9 3.1.7.4.6.9-.1 1.3-.6.4-2-.5-3.3-1.9-2.1-2.5-6.1-3.4-7.3-1.6-.3.5.5 1.3 1.7 1.7 2.2.7 2.2.7.3 1.5-3.2 1.2-6.5 1-6.5-.4 0-.7-.5-1.8-1.2-2.5-.9-.9-1.6-.8-3.1.6-1 .9-2.1 1.6-2.3 1.4-1.4-.8-2.4.1-1.9 1.7.7 2.2-2.7 5.1-5.8 5.1-.9 0-2 .6-2.3 1.3-.2.7-1.7 1.4-3.1 1.5-1.5.1-3.2.7-3.7 1.2-1.5 1.5-3.8 1.2-6.6-.7-1.4-1-3.2-1.7-4-1.5-.8.1-2.7-.9-4.2-2.3-1.7-1.6-3.3-2.2-4.4-1.8-1 .4-2.1 0-2.8-.9-1.3-1.8-10.2-2.6-15.3-1.4-2.3.5-3.3 1.3-3.3 2.7 0 2.8.3 3.4 1.8 3.2.7 0 1.1.5.8 1.2-.3.8 0 1.6.7 1.8s.8.8.4 1.3c-.4.4-2.2.1-4-.8-3.6-1.8-6.5-3-8.5-3.4-.8-.1-2.2-1-3.3-2-1.6-1.4-1.9-1.5-1.9-.2 0 2.9-8.5-.1-9.5-3.4-.4-1-1.3-1.8-2.1-1.8-.9 0-2.2-.7-3-1.5s-3.1-1.7-5.2-2.1c-2-.3-4.2-1.3-4.9-2.2-1-1.2-1.5-1.3-2.7-.3-.8.7-2 .9-2.7.5-2.4-1.5-6.9-1.4-6.9.1 0 1.7-1.6 2-2.5.5-.3-.6-.1-1 .6-1 .9 0 .9-.3 0-1.4-.8-.9-.8-2.1-.1-4 .6-1.7.6-2.6 0-2.6s-1-.6-1-1.4c0-.7-.7-1.9-1.5-2.6-1.7-1.4-2-5.7-.5-9.4.5-1.5.6-2.6 0-2.6-.5 0-1.2-.9-1.5-2s-1.1-2-1.6-2c-.6 0-.8.4-.5.9s-.1 1.1-.9 1.5c-.8.3-1.5 1-1.5 1.6s.3.9.8.7c.4-.2 1.5.4 2.5 1.5.9 1 1.3 1.8.7 1.8-.5 0-.7.6-.4 1.4.3.9-.4 1.6-2.1 2-1.4.4-2.3 1.1-2 1.6s.1 1.2-.5 1.5c-.7.4-.8-.7-.4-3.4.6-3.6.4-4.1-1.2-4.1-1.5 0-1.6-.2-.5-.9.8-.5 1-1.4.6-2.1s-.3-1.5.2-1.9c1.7-1.1 2.6-5.1 1.1-5.1-3.2.1-4.5 2.5-4.4 8.5.1 5.2-.2 6-1.7 5.7-1.2-.2-1.7.4-1.7 1.8 0 2.8-2.4 2.1-2.8-.8-.3-1.9-1.4-2.8-2.5-2-.2.2-1.1-.3-2-1.1-1-.7-1.7-1-1.8-.5s-.2 2.3-.4 4.1c-.1 1.8-.5 4-.9 4.8-.5 1.5-.8 1.5-2.3-.1-1.7-1.7-1.8-1.7-2.1.4-.3 2.2-2.2 3.2-2.2 1.1 0-.6-.7-.4-1.5.5-.9.8-2.2 1.3-3 1-.8-.4-1.5-.1-1.5.5 0 .7-1.3 1-3.5.7-2.3-.3-4 .1-5 1-1.3 1.4-1.5 1.4-1.5 0 0-.9-.9-2.4-2-3.3-1.1-1-2-2.3-2-2.9 0-1.5-2.8-2.6-3.5-1.4-.9 1.5-2.2 1.2-2.2-.5 0-.8.4-1.2.8-1 .4.3 1.3-1.6 2-4.1 1.1-3.5 1.8-4.4 3.1-4 2.2.5 2.4-2.2.2-3.1-.8-.3-1.4-1.5-1.3-2.7.2-3.4-.1-4.2-1.1-2.6-.8 1.2-1 1-1-1.1 0-1.4-.3-2.8-.6-3.2-.9-.9-3.5.4-2.8 1.4.3.5.1.9-.5.9-.5 0-1.4 1.2-1.9 2.7-.9 2.4-1.1 2.5-1.1.7-.1-1.2-.7-2.7-1.5-3.3-3.1-2.6.4-8.1 5.2-8.1 1.4 0 2.1-.4 1.6-1.1-.3-.6-1.8-.9-3.3-.6-1.4.3-3.4.1-4.3-.4-1.2-.7-1.8-.6-1.8.1 0 .6-.5.8-1.2.4-.6-.4-.8-.3-.4.4 1 1.6-1.3 2.5-2.9 1.2-1.2-1-1.7-.7-2.6 1.6-.5 1.6-.8 3.9-.6 5.1.2 1.3 0 2-.6 1.6-.5-.3-.6.3-.2 1.6.7 2.3-.4 2.8-2.2 1-.9-.9-1-.7-.6.9.3 1.5 0 2.4-1.2 2.8-.9.4-2.1 1.7-2.6 3-.9 2.5-4.1 3.4-3.8 1.1.3-2.6-.2-3.7-1.6-3.7-.8 0-1.5.7-1.5 1.5 0 1-.9 1.4-2.5 1.3-2.5-.2-3.5-1.7-1.2-1.9.6-.1.1-.4-1.3-.8-1.5-.4-2.8-.3-3.2.3-.5.7-.8.7-.8-.2 0-1.9-3-1.4-3.1.5 0 1.4-.2 1.4-.9-.3-.5-1.2-1.3-2.5-1.9-2.9-.6-.3-1.1-1.7-1.1-2.9 0-2.6-2.2-5-3.5-3.8-.5.4-.5-.1-.2-1.1.4-.9.2-1.7-.3-1.7-.6 0-1-.5-1-1.1 0-.5.5-.7 1-.4 1.8 1.1 1.1-1.4-.9-3.2-1.2-1.2-1.7-2.3-1.2-3.1.9-1.5.3-6-1-6.8-.5-.3-.9-1.1-.9-1.7 0-.7.4-.6 1 .3.8 1.3 1 1.3 1-.2 0-.9-.8-2.2-1.7-2.7-1-.6-1.2-1.1-.5-1.1.6 0 1.2-.7 1.2-1.6 0-1.3.3-1.4 1.4-.5 1.1 1 1.4.9 1.2-.1-.4-2.6-1.6-3.5-4.1-3-2 .3-2.5 0-2.5-1.6 0-1.1-.7-2.5-1.5-3.2s-1.2-1.7-.8-2.3q.45-.9-.6-.3c-.7.4-.9 1.7-.6 2.9.6 2.1.6 2.2-.9.3-.9-1.1-1.6-2.3-1.6-2.8 0-.4-1.2-.8-2.6-.8-2.1 0-2.5.4-2.1 2 .3 1.1.1 2-.3 2s-.6 1-.2 2.2c1 3.9 3.9 7.9 6.7 9.4 3.5 1.8 3.6 1.8 2.8-.4-.6-1.5-.5-1.5 1-.3 1.9 1.5 2.2 3.8.7 4.3-.6.2-.2 1.8.8 3.8 2.4 4.4 1.9 6.2-1.3 5-1.7-.7-2.8-.5-3.7.4-.7.7-1.8 1.1-2.4.9s-1.5.6-1.8 1.9c-.7 2.2-.7 2.2-1.5.3-.5-1.1-.6-2.4-.4-2.8.3-.5-.1-2.1-.7-3.8-1-2.2-1.9-2.9-4.1-2.9-1.5 0-3.1-.5-3.4-1-.3-.6-.1-1 .5-1 1.3 0 .2-4.6-1.9-8-.9-1.3-1.1-2.1-.4-1.7.6.4 1.3.2 1.5-.4.7-2.1 4.5.1 5.8 3.2.9 2 1.5 2.6 2.1 1.8.9-1.5-1-5.9-2.6-5.9-.7 0-2.4-.9-3.9-2.1-3.6-2.8-3.1-7.1 1.1-10.8 2.8-2.4 2.9-2.7 1.4-4.1-1.6-1.5-1.9-1.3-4 2.1m12.7 10.1c1.7 1.7 1.5 3.3-.2 1.9-1.1-.9-1.5-.9-1.9.1-.3.7-.6.3-.6-1-.1-2.4.9-2.8 2.7-1m-295.2 6.9c.4.7 0 1.6-.9 2.1-1.4.7-1.5 1.2-.5 2.8 1.7 2.8-.1 4.5-2.7 2.6-1.9-1.4-1.9-1.5-.2-3.4 1-1.1 1.5-2.6 1.1-3.6-.7-1.9 2-2.3 3.2-.5M514 526c0 .5-.4 1-1 1-.5 0-1-.5-1-1 0-.6.5-1 1-1 .6 0 1 .4 1 1m-384.2 6c-.2.5-.9.6-1.6.1-.7-.4-1-1.5-.6-2.5.6-1.7.8-1.7 1.6-.2.5.9.8 2.1.6 2.6m3.7-.1c.3.5.1 1.2-.5 1.6-.5.3-1-.1-1-.9 0-1.8.6-2.1 1.5-.7m4.2.6c0 .8-.4 1.5-.9 1.5-.4 0-.8-.7-.8-1.5s.4-1.5.8-1.5c.5 0 .9.7.9 1.5m357.4 3.2c.7 1.8.6 3-.1 3.7s-1 0-1-2.3c0-1.9-.4-3-1-2.6-.5.3-1 .1-1-.4 0-2.1 2.1-1 3.1 1.6M181.7 537c-.7 3.2.1 3.8 2.1 1.8.9-.9 1.2-.8 1.2.5 0 .9-.4 1.7-1 1.7-.5 0-1 .8-1 1.8 0 2.4-3.5 5.8-4.5 4.2-2.2-3.6-2.4-7.3-.4-10.1 2.7-3.8 4.3-3.7 3.6.1m142.6-1.5c-.3.9-.8 1.4-1 1.1-.3-.3-.2-.9.2-1.5.9-1.6 1.5-1.3.8.4m-187.3 2c0 .8-.4 1.7-1 2-.6.4-1-.5-1-2s.4-2.4 1-2c.6.3 1 1.2 1 2m82-1c.7.9.8 1.5.2 1.5-.5 0-1.2-.7-1.6-1.5-.3-.8-.4-1.5-.2-1.5s.9.7 1.6 1.5m10-.3c0 .9.3.8 1-.2.8-1.2 1-1.2 1.6.3.3.9 1.4 1.7 2.4 1.7 1.3 0 1.7.8 1.6 3.2-.1 2.8-.5 3.3-2.8 3.6-2 .2-2.8-.1-2.8-1.2 0-.8-.9-2-2-2.6-2.1-1.1-2.8-4-.9-4 .5 0 .7-.5.4-1-.3-.6-.1-1 .4-1 .6 0 1.1.6 1.1 1.2m289-.2c0 .5-.2 1-.4 1-.3 0-.8-.5-1.1-1-.3-.6-.1-1 .4-1 .6 0 1.1.4 1.1 1m-305.7 2.5c-.5 1.3-2.3 2.2-2.3 1.1 0-1.5 1.4-3.5 2.1-3.1.4.3.6 1.2.2 2m-66.3.5c0 .5-.7 1-1.5 1s-1.5-.5-1.5-1c0-.6.7-1 1.5-1s1.5.4 1.5 1m192 1.1c0 .6-.4.7-1 .4-.5-.3-1-1.1-1-1.6 0-.6.5-.7 1-.4.6.3 1 1.1 1 1.6m159.6.5c-2.1 2-2.8 1.7-1.6-.6.6-1.1 1.5-1.8 2.1-1.5.5.4.3 1.2-.5 2.1m-386.6-.1c0 .8-.4 1.5-1 1.5-.5 0-.7-.7-.4-1.5.4-.8.8-1.5 1-1.5s.4.7.4 1.5m3.8 2c-.3.3-.9-.2-1.2-1.2-.6-1.4-.5-1.5.5-.6.7.7 1 1.5.7 1.8m387.9.1c-.9.9-2.8-.6-2.1-1.8.4-.6 1-.6 1.7.1.6.6.8 1.3.4 1.7M210 542c0 .5-.4 1-1 1-.5 0-1-.5-1-1 0-.6.5-1 1-1 .6 0 1 .4 1 1m288.3 2.8c-2.2.5-2.7-.6-1.2-2.4 1.2-1.5 1.4-1.4 2 .3.4 1.2.1 1.9-.8 2.1M106 543.4c0 .3-.4.8-1 1.1-.5.3-1 .1-1-.4 0-.6.5-1.1 1-1.1.6 0 1 .2 1 .4m8.6 2.9c.3 2.3-.3 2.1-1.7-.4-.8-1.7-.8-2 .2-1.7.7.2 1.3 1.2 1.5 2.1M144 545c0 .5-.2 1-.4 1-.3 0-.8-.5-1.1-1-.3-.6-.1-1 .4-1 .6 0 1.1.4 1.1 1m65.4 1.1c-.8 1.4-2.4 1-2.4-.6 0-.9.6-1.2 1.5-.9.8.4 1.2 1 .9 1.5m129.1-1.1c.3.5.1 1-.4 1-.6 0-1.1-.5-1.1-1 0-.6.2-1 .4-1 .3 0 .8.4 1.1 1m163.7 2.5c-.2 1.4-.8 2.5-1.3 2.5-1 0-1.1-.7-.3-3.7.8-3.1 2.3-2 1.6 1.2m-204.2.4c0 .5-.7 1.2-1.6 1.5-1.4.5-1.5.4-.4-.9 1.4-1.7 2-1.9 2-.6m199.7-.3c-.3.3-1.2.4-1.9.1-.8-.3-.5-.6.6-.6 1.1-.1 1.7.2 1.3.5m-172.3 2c.3.8.2 1.2-.4.9s-1-1-1-1.6c0-1.4.7-1.1 1.4.7m190.3 2.6c-.3.8-.6.5-.6-.6-.1-1.1.2-1.7.5-1.3.3.3.4 1.2.1 1.9m-195-.6c-.3.3-1.2.4-1.9.1-.8-.3-.5-.6.6-.6 1.1-.1 1.7.2 1.3.5m151.3-.2c0 .3-.4.8-1 1.1-.5.3-1 .1-1-.4 0-.6.5-1.1 1-1.1.6 0 1 .2 1 .4m28 1.7c0 .6-.4.7-1 .4-.5-.3-1-1.1-1-1.6 0-.6.5-.7 1-.4.6.3 1 1.1 1 1.6m3.7 1.1c-.3.8-.6.5-.6-.6-.1-1.1.2-1.7.5-1.3.3.3.4 1.2.1 1.9m62.3-.5c0 .5-.5 1.5-1 2.3-.9 1.3-1.1 1.3-1.9 0-.7-1-.6-1.7.2-2.2 1.5-1 2.7-1 2.7-.1m8 .8c0 .9-.6 1.2-1.5.9-.8-.4-1.2-1-.9-1.5.8-1.4 2.4-1 2.4.6m-59 2.2c0 2 .3 2.4.9 1.4.5-.8 1.1-.9 1.5-.3s-.2 1.5-1.1 2.1c-1.7 1-1.7 1 0 1.1 1 0 1.5.4 1.2 1-.3.5-.1 1 .4 1 .6 0 1.1 1.6 1.1 3.5 0 4.6-2.5 5.8-5.1 2.4-2.6-3.2-2.4-14.9.2-14.9.5 0 .9 1.2.9 2.7m-251-.2c-.7.8-1.7 1.5-2.3 1.5s-.2-.7.9-1.5c2.5-1.9 3-1.9 1.4 0m-4.7 1.2c-.7.2-2.1.2-3 0-1-.3-.4-.5 1.2-.5 1.7 0 2.4.2 1.8.5m303.7 1.4c0 .5.5.7 1 .4.6-.3 1 .1 1 .9 0 .9.4 1.6.9 1.6s.9 1.1.9 2.5c0 1.8-.6 2.5-2 2.5-1.6 0-1.7.3-.8 2 1.5 2.7.2 4.7-1.5 2.4-.9-1.3-1-2.6-.3-4.7.8-2 .7-3.2-.1-4-1.4-1.4-1.5-4.7-.1-4.7.6 0 1 .5 1 1.1m-232.5.9c.3.5-.1 1-1 1s-1.3-.5-1-1c.3-.6.8-1 1-1s.7.4 1 1m139.4 1.4c.9 1 .7 2.1-.6 4.5-1 1.7-2.1 3.1-2.5 3.1-1.2 0-1.5-3.4-.5-6.3 1-3 1.9-3.4 3.6-1.3m24.7 4.1c-.9 2-1.5 3.8-1.6 4v2.2c-.1 1.3-.5 1-1.6-1-1.6-2.9-1.2-6.3.5-5.2.6.3 1.5-.4 2.1-1.5 1.8-3.3 2.1-2.3.6 1.5m77.3-2.3c.3-.6 1.1 0 1.8 1.4.6 1.3.7 2.2.2 1.8-.5-.3-.9.3-1 1.3 0 1.6-.1 1.6-.9-.2-.8-1.7-.9-1.8-1.1-.3-.1 1-.3 2.2-.4 2.8-.1.5-.3 1.7-.4 2.6-.1 1.3-.4 1.4-1.6.4-1.8-1.5-2-3.4-.2-2.4.9.6.9.4.1-.7-.8-1-.7-2.3.4-4.9.9-2.1 1.7-3 2-2.1.3.8.7.9 1.1.3m-234.5.6c.3.5-.8.8-2.4.8s-2.7-.3-2.4-.8c.3-.4 1.4-.8 2.4-.8s2.1.4 2.4.8m188.9 1.7c.4.8.2 1.7-.3 2-.9.6-.8 5.3.2 7 .9 1.5-.7 5.1-1.6 3.7-.4-.7-1.1-1-1.6-.7-2 1.2-2-4.8 0-8.2 1.1-1.9 1.8-3.9 1.5-4.4-.4-.5-.2-.9.3-.9.6 0 1.2.7 1.5 1.5m6.3 1c-.7 2.9.8 3.4 2.3.7 1-1.6 1-1.6 1.1 0 0 .9-.4 2-1 2.3-.5.3-1 1.7-1 3.1 0 1.3-.4 2.4-.9 2.4s-1.2.7-1.5 1.6c-.3.8-.2 1.2.4.9s1 .1 1 .9c0 2.9-1.9 1.7-4.1-2.5-2.7-5.5-1.2-11.9 2.8-11.9 1.1 0 1.3.7.9 2.5M543 565c1.9 1.2 2.4 13 .5 13-.7 0-1.5-.7-1.9-1.5-.3-.8-1.3-1.5-2.2-1.5s-1.4-.6-1.1-1.3c.3-.6.8-2 1.2-3s.3-1.7-.4-1.7c-1.5 0-1.4-3.7.2-4.3 1.8-.8 2.1-.8 3.7.3m-69.6 3.6c1.9.7 2 3.3.2 5.6-1.7 2.3-2.6 2.3-2.6-.2 0-1.1-.6-2-1.2-2-.8-.1-.6-.6.4-1.4 1-.7 1.5-1.6 1.1-1.9-.8-.9.1-.9 2.1-.1m38.6.9c1 1.3.9 1.5-.9 1.5-1.2 0-2.1-.6-2.1-1.5 0-.8.4-1.5.9-1.5s1.4.7 2.1 1.5m109.3 0c-.3.9-.8 1.4-1 1.1-.3-.3-.2-.9.2-1.5.9-1.6 1.5-1.3.8.4m-73.6 3.7c-.3.7-.5.2-.5-1.2s.2-1.9.5-1.3c.2.7.2 1.9 0 2.5M609 571c0 .5-.4 1-1 1-.5 0-1-.5-1-1 0-.6.5-1 1-1 .6 0 1 .4 1 1m-199 2c0 .5-1 1-2.2 1-1.9 0-2-.2-.8-1 1.9-1.3 3-1.3 3 0m79.7 2.4c-.4.9-1.1 1.6-1.7 1.6-1.1 0-1.4-3.3-.3-4.4 1.1-1 2.6 1.1 2 2.8M618 573c0 .5-.5 1-1.1 1-.5 0-.7-.5-.4-1 .3-.6.8-1 1.1-1 .2 0 .4.4.4 1m-81 .9c0 .6-.4 1.3-1 1.6-.5.3-1-.1-1-.9 0-.9.5-1.6 1-1.6.6 0 1 .4 1 .9m91 1.1c0 .5-.2 1-.4 1-.3 0-.8-.5-1.1-1-.3-.6-.1-1 .4-1 .6 0 1.1.4 1.1 1m-14.2 1.7c-.2 1.1-1.3 1.8-2.6 1.9-2.1.1-2.2 0-.6-1.7 2.1-2.4 3.6-2.4 3.2-.2m14.8 4.6c.1.9-.3 2-1 2.6-.8.7-1.2.1-1.2-2-.2-3.1 1.7-3.6 2.2-.6m-17.8.4c-.5.7-1.4 1-1.9.7-1.6-1-.9-2.3 1-2.1 1.5.1 1.7.4.9 1.4M627 587c0 .5-.4 1-1 1-.5 0-1-.5-1-1 0-.6.5-1 1-1 .6 0 1 .4 1 1m2.3 2.7c.3.5-.4 1.7-1.4 2.7-1.9 1.9-2.4 1.2-1.3-1.8.6-1.7 2-2.1 2.7-.9m5.6 5.2c1.1.7 1 1.3-.8 3.2s-2.1 2-2.1.5c0-1-.5-1.4-1.1-1.1-.6.4-.5-.2.3-1.4 1.4-2.3 1.7-2.4 3.7-1.2m288.9 5.5c.2 1-.1 2.3-.8 3-1.7 1.7-4.4-2.2-2.8-4.1 1.4-1.7 3.2-1.2 3.6 1.1M673 601c0 .5-.5 1-1.1 1-.5 0-.7-.5-.4-1 .3-.6.8-1 1.1-1 .2 0 .4.4.4 1m246 2.6c0 .9-1 1.4-2.7 1.4-2.5 0-2.6-.1-.8-2 1.9-2.1 3.5-1.8 3.5.6m8 .5c0 .5-.7.9-1.5.9-1.5 0-2-1.2-.9-2.3.8-.8 2.4.1 2.4 1.4m-71.5 3.9c-.3.5-1.3 1-2.1 1s-1.4-.5-1.4-1c0-.6.9-1 2.1-1 1.1 0 1.7.4 1.4 1m97.5 8.2c0 .4-.4.8-.9.8-.6 0-1.2-.4-1.5-.8-.3-.5.1-.9.9-.9s1.5.4 1.5.9m104 .8c1.3.9 1.3 1 0 1-.8 0-2.2-.5-3-1-1.3-.9-1.3-1 0-1 .8 0 2.2.5 3 1m3.9 3c-.6.5-1.9.6-2.7.2-1.3-.4-1.2-.7.4-1.2 2.3-.9 4.1-.1 2.3 1m34.4-1.3c-.7.2-1.9.2-2.5 0-.7-.3-.2-.5 1.2-.5s1.9.2 1.3.5m2.8 2.6c-.1 1.2-1.5.9-1.9-.4-.3-.6.1-1 .8-.8.6.3 1.1.8 1.1 1.2m134.6 24.9c-.3.8-.6.5-.6-.6-.1-1.1.2-1.7.5-1.3.3.3.4 1.2.1 1.9m-50 2.4c-.3.3-1.2.4-1.9.1-.8-.3-.5-.6.6-.6 1.1-.1 1.7.2 1.3.5m260.8 1.5c-.5.6-5.5 0-5.5-.7 0-.3 1.3-.3 2.9-.2s2.8.5 2.6.9m-20.6 2.5c-.6.8-1.5 1.4-2 1.4-1.4 0-1.1-2.8.4-3.3 2-.7 2.9.4 1.6 1.9m24.7-.4c.4.6.3.8-.2.5-.6-.3-1.6-.2-2.4.4-1 .6-1.1.9-.2.9.6 0 1.2.7 1.2 1.5 0 .9-.9 1.5-2.2 1.4-1.3 0-1.7-.3-1-.6.6-.2.9-.9.6-1.4-.9-1.5.4-3.9 2-3.9.8 0 1.8.5 2.2 1.2M1680 656c1.1 0 2 .4 2 1 0 1.5-5.9.5-7.7-1.2-.8-.9-1.2-2.1-.8-2.8.5-.8 1.3-.5 2.6.9 1.1 1.2 2.9 2.1 3.9 2.1m-190.9-.7c-1 .9-1.1.8-.5-.6.3-1 .9-1.5 1.2-1.2s0 1.1-.7 1.8m165.5 1.8c.9 1.6-.6 4.7-2.6 5.2-2.7.7-2.5 2.5.2 2.9 1.3.2 2.4 1.1 2.6 2.2.3 1.4 0 1.7-1.3 1.3-.9-.4-1.3-.3-1 .2 1.2 2-5.6.8-7-1.2-1.2-1.8-1.6-1.8-3.1-.6-1 .8-1.5.9-1.1.2.4-.6.3-1.4-.3-1.8-.5-.3-1-.2-1 .3 0 1.2-6.9.7-8.3-.7-1.6-1.6 1.8-5.4 5.4-5.6q3.15-.3 1.8.6c-2.1 1.3.5 1.1 3.6-.3 1.7-.7 2.1-1.4 1.4-1.9-.8-.4-.2-1.2 1.7-2.2 2.8-1.5 7.6-.7 9 1.4m-44.6 4.3q0 1.35 3 1.2c2.3-.2 3 .2 3 1.7 0 1.2-.4 1.6-1.2 1-.7-.4-2.4-.9-3.8-1.1-3-.4-4.5-1.6-3.6-3.1 1-1.6 2.6-1.4 2.6.3m-101.5 1.1c-2.1 1.7-4.6 1.6-5.2 0-.2-.6 1.3-1.2 3.4-1.3 3.6-.2 3.7-.1 1.8 1.3m215.5 4.4c.8.2 2.1.4 2.8.4.6 0 1.2.4 1.2.9 0 1.1-6 0-7.7-1.4-.7-.6-1-1.5-.6-2.1s1-.5 1.7.4c.6.8 1.8 1.6 2.6 1.8m181.1 20.8c0 .5.2 1.8.3 3.1.3 2.6-1 1.7-1.7-1.3q-.45-1.95-.6 1.2c0 1.7-.6 3.5-1.1 3.8-1 .6-.7-2.1.6-6.3.4-1.3 2.3-1.7 2.5-.5m-4.7 2.8c-.4.8-1.1 1.5-1.6 1.5-.6 0-.5-.6.2-1.5.7-.8 1.4-1.5 1.6-1.5s.1.7-.2 1.5m7.4 8.5c-1.4 2.2-1.4 2.2-4.3 1-2.1-.8-1.5-1.3 3-2.3 1.1-.3 2.1-.5 2.3-.6.1 0-.3.8-1 1.9m-57.8 2.6c0 .2-.7.4-1.5.4s-1.5-.4-1.5-1c0-.5.7-.7 1.5-.4.8.4 1.5.8 1.5 1m2.5 3.4c.3.5.3 1.5 0 2-.7 1.2-4.5-.5-4.5-2 0-1.3 3.7-1.3 4.5 0m101.3 5.2c-.6 1.6-3.6 3.4-4.4 2.5-.9-.9 1.5-3.7 3.3-3.7.8 0 1.3.5 1.1 1.2m20.2 7.2c0 1.1-1.9 1.5-2.5.6-.3-.5.1-1 .9-1 .9 0 1.6.2 1.6.4m175 3.1c0 .8-.2 1.5-.4 1.5s-.6-.7-1-1.5c-.3-.8-.1-1.5.4-1.5.6 0 1 .7 1 1.5m120.7 6.8c-.6 2-2.7 1.9-2.7-.2 0-1.4.5-1.9 1.5-1.4.9.3 1.4 1 1.2 1.6M2369 738c0 .5-.5 1-1.1 1-.5 0-.7-.5-.4-1 .3-.6.8-1 1.1-1 .2 0 .4.4.4 1"/><path fill="url(#grad1)" d="M178.5 539c-.3.5-.1 1 .4 1 .6 0 1.1-.5 1.1-1 0-.6-.2-1-.4-1-.3 0-.8.4-1.1 1M515.8 564.7c.7.3 1.6.2 1.9-.1.4-.3-.2-.6-1.3-.5-1.1 0-1.4.3-.6.6M529 568.5c-.7.9-.8 1.5-.2 1.5.5 0 1.2-.7 1.6-1.5.3-.8.4-1.5.2-1.5s-.9.7-1.6 1.5M472.1 570.9q-1.2.9-.3 1.5c.6.3 1.4.1 1.7-.5.9-1.4.2-2-1.4-1M1646.7 667.1c.7.7 1.5 1 1.8.7s-.2-.9-1.2-1.2c-1.4-.6-1.5-.5-.6.5M515.1 516.6c0 1.1.3 1.4.6.6.3-.7.2-1.6-.1-1.9-.3-.4-.6.2-.5 1.3M192 530c0 .5.5 1 1.1 1 .5 0 .7-.5.4-1-.3-.6-.8-1-1.1-1-.2 0-.4.4-.4 1M111.8 532.7c.7.3 1.6.2 1.9-.1.4-.3-.2-.6-1.3-.5-1.1 0-1.4.3-.6.6M192 532.7c.5.2.8.9.5 1.3-.3.5 0 1.2.6 1.5.7.5 1 .1.7-1-.1-1-.9-2-1.6-2.1s-.8 0-.2.3M197 532.9c0 1 1.9 2.5 2.5 2 .1-.2-.3-1-1.1-1.7s-1.4-.8-1.4-.3M473 536c0 .5.5 1 1.1 1 .5 0 .7-.5.4-1-.3-.6-.8-1-1.1-1-.2 0-.4.4-.4 1M508 536c0 .5.7 1 1.5 1s1.5-.5 1.5-1c0-.6-.7-1-1.5-1s-1.5.4-1.5 1M473.5 540c-.3.5-.1 1 .4 1 .6 0 1.1-.5 1.1-1 0-.6-.2-1-.4-1-.3 0-.8.4-1.1 1M483 541.6c0 .8.5 1.2 1 .9.6-.4.8-1.1.5-1.6-.9-1.4-1.5-1.1-1.5.7M308.6 543.6c-.8 2.2-.4 2.5 1.1.9.7-.8.9-1.6.4-1.9s-1.2.1-1.5 1M309.6 546.7c-.6 1.4-.5 1.5.5.6.7-.7 1-1.5.7-1.8s-.9.2-1.2 1.2M477.4 548.3c.7 1.8 1.1 3.7.9 4.2-.2.6.7 1.6 1.8 2.4 1.9 1.1 2.1 1.1 1.6-.3-.4-.9-.2-1.6.4-1.6s.9-1 .7-2.3-1-2.2-2-2.2c-.9 0-2-.4-2.4-.8s-.2-.7.4-.7c2 0 1.3-1.6-.8-1.7-1.8-.2-1.9 0-.6 3M922.8 547.7c.7.3 1.6.2 1.9-.1.4-.3-.2-.6-1.3-.5-1.1 0-1.4.3-.6.6M927.2 550.5c0 1.6.2 2.2.5 1.2.2-.9.2-2.3 0-3-.3-.6-.5.1-.5 1.8M331 550.1c0 .5.5.7 1 .4.6-.3 1-.8 1-1.1 0-.2-.4-.4-1-.4-.5 0-1 .5-1 1.1M551 553c0 .5.5 1 1.1 1 .5 0 .7-.5.4-1-.3-.6-.8-1-1.1-1-.2 0-.4.4-.4 1M527.4 555.1c-.3.6-.1 1.6.5 2.2.8.8 1.1.5 1.1-1.1 0-2.4-.5-2.8-1.6-1.1M927.2 560c0 1.4.2 1.9.5 1.2.2-.6.2-1.8 0-2.5-.3-.6-.5-.1-.5 1.3M456 565c0 .5.5 1 1.1 1 .5 0 .7-.5.4-1-.3-.6-.8-1-1.1-1-.2 0-.4.4-.4 1M917.1 576.6c0 1.1.3 1.4.6.6.3-.7.2-1.6-.1-1.9-.3-.4-.6.2-.5 1.3M921.6 583.6c-.3.9-.6 2.4-.6 3.5 0 1-.5 1.9-1.1 1.9-.5 0-.7.5-.3 1.1.9 1.5 2.5-.3 2.7-3.2 0-1.3.5-2.7 1-3 .5-.4.5-.9-.1-1.3-.5-.3-1.3.1-1.6 1M924.1 589.6c0 1.1.3 1.4.6.6.3-.7.2-1.6-.1-1.9-.3-.4-.6.2-.5 1.3M914.1 593.6c0 1.1.3 1.4.6.6.3-.7.2-1.6-.1-1.9-.3-.4-.6.2-.5 1.3M929.1 594.6c0 1.1.3 1.4.6.6.3-.7.2-1.6-.1-1.9-.3-.4-.6.2-.5 1.3M1267 631.9c0 .6.4 1.3 1 1.6s.7-.1.4-.9c-.7-1.8-1.4-2.1-1.4-.7M1620.2 646.2c.3.7 1.6 2 3.1 2.8 2.4 1.3 2.8 1.3 4.4-.2 2.1-2.2 1.8-2.5-3.6-3.3-3.3-.5-4.2-.3-3.9.7M1734.2 652.6c-1.3 1.5-1.6 3.4-.4 3.5 4.9.5 7 .4 8.6-.4 1.8-.9 1.8-1 .2-1.9-3.7-2.1-7.1-2.5-8.4-1.2M1704.4 659.6c.2 1 .8 2 1.5 2.2.8.3 1.2-.3.9-1.4-.4-2.3-2.7-3.1-2.4-.8M1747.1 663.9c-2.8.5-3.4 1.1-3.7 3.4-.2 1.9.1 2.5.9 2 .7-.4 2.7-.8 4.5-.9 1.8 0 2.8.2 2.1.6-.8.6-.8.9 0 1.4.6.4.9 1.3.5 1.9-.3.7.3.2 1.4-1.1 1.1-1.2 2.5-2.2 3.2-2.2.6 0 .8-.5.5-1-.4-.6-1.1-.7-1.7-.4-.6.4-.8.2-.4-.4.3-.5 0-1.3-.6-1.6-.7-.3.1-.3 1.9 0 1.7.3 3.4.1 3.7-.4s0-.9-.7-1c-5-.7-8.7-.8-11.6-.3M1756.7 675.1c.7.7 1.5 1 1.8.7s-.2-.9-1.2-1.2c-1.4-.6-1.5-.5-.6.5M1770 675.1c0 .5.9.9 1.9.9 1.1 0 2.2-.4 2.5-.9s-.6-.9-1.9-.9c-1.4 0-2.5.4-2.5.9M1868.1 682.6c0 1.1.3 1.4.6.6.3-.7.2-1.6-.1-1.9-.3-.4-.6.2-.5 1.3M1867.2 691.5c0 1.6.2 2.2.5 1.2.2-.9.2-2.3 0-3-.3-.6-.5.1-.5 1.8M1886.8 690.7c.6.2 1.8.2 2.5 0 .6-.3.1-.5-1.3-.5s-1.9.2-1.2.5"/></svg>
