<svg xmlns="http://www.w3.org/2000/svg" width="276" height="296"><path fill="#ffffff" fill-rule="evenodd" d="m103.476 2.278-2.57 2.222.067 65.633.067 65.634-27.27 19.425-27.27 19.426L26 189.163 5.5 203.709l-2.75 1.76L0 207.23v9.862l8.75 4.069 8.75 4.069 10.5 4.764 10.5 4.764L62 245.52l23.5 10.763 12.5 5.719 12.5 5.719 28.707 13.139L167.915 294h3.204l21.191-15.059 21.19-15.058 31.173-22.192 31.172-22.191.328-2 .327-2-.312-68.666-.313-68.665-3.187-1.477-3.188-1.478-12-5.49-12-5.491-30.5-13.99-30.5-13.989L161 25.517l-23.5-10.736-12-5.478-12-5.477-3.727-1.885-3.727-1.885-2.57 2.222m1.023 2.724-.619 1.002 2.583.982 2.583.982 11.727 5.407 11.727 5.406L156 29.517l23.5 10.737L210 54.243l30.5 13.99 13 5.899 13 5.9 1.5.843 1.5.843.257 66.453.257 66.454-30.757 21.895-30.757 21.895-18.5 13.126-18.5 13.127-1.811.658-1.81.658-28.69-13.132-28.689-13.131-12.5-5.719-12.5-5.719L62 237.52l-23.5-10.762-10.5-4.77-10.5-4.77-7.75-3.584L2 210.05v4.722l3.25 1.507 3.25 1.507 12 5.497 12 5.498L56 239.517l23.5 10.737 30.5 13.989 30.5 13.99 12.972 5.975 12.971 5.976 2.21.158 2.21.158 22.642-16 22.643-16 28.676-20.5 28.676-20.5.257-68.514.257-68.514-16.257-7.392-16.257-7.393-19.5-8.952-19.5-8.953-11.5-5.28-11.5-5.281L156 26.5l-23.5-10.72-12.773-5.89L106.955 4H105.118l-.619 1.002m-1.256 67.639.257 63.641 1.5.843 1.5.843 13 5.907 13 5.906 23.5 10.737 23.5 10.736 30.5 13.989 30.5 13.99 12.773 5.883L266.045 211h1.97l-.258-63.587-.257-63.586-17.5-7.994-17.5-7.993-17.5-8.028-17.5-8.028-11.5-5.281-11.5-5.282L151 30.5l-23.5-10.721-11.692-5.389L104.115 9h-1.13l.258 63.641m7.448 4.609.191 55.25 14.809 6.836 14.809 6.837 22 10.061 22 10.061 10.5 4.784 10.5 4.784 25 11.471 25 11.471.75-.462.75-.461V88.315l-7.75-3.595-7.75-3.595L210 66.69l-31.5-14.436-23-10.511-23-10.511-10.106-4.616L112.289 22H110.5l.191 55.25m2.309.813v52.064l9.25 4.344 9.25 4.344 23.5 10.719 23.5 10.72 30.5 13.988 30.5 13.987 7.391 3.386 7.391 3.385H255V91.245l-1.25-.957-1.25-.957L232 79.99l-20.5-9.341-14-6.435-14-6.434-10.5-4.767-10.5-4.767-24.359-11.123L113.783 26H113v52.063M70.946 160.75 40.401 182.5 22.727 195 5.052 207.5l-.026.75L5 209h1.955l12.772 5.891 12.773 5.89L56 231.518l23.5 10.736 30.5 13.989 30.5 13.99 11.727 5.399 11.727 5.4 2.476.941 2.476.942 17.797-12.608 17.797-12.608 11.5-8.125 11.5-8.125 18.75-13.402L265 214.645l-.035-.573-.035-.572-13.215-5.961-13.215-5.96-21.5-9.857-21.5-9.858-10.5-4.825-10.5-4.825-23.5-10.717-23.5-10.717-12.773-5.89-12.772-5.89h-.465l-30.544 21.75m12.357 2.825L64.5 177.003v3.068l9.5 4.31 9.5 4.31 22.5 10.3 22.5 10.299 11.5 5.247 11.5 5.247 26.376 12.099 26.376 12.1 19.885-14.18 19.886-14.18-.762-.672-.761-.672-11-5.033-11-5.034-24.5-11.24-24.5-11.241-24-10.98-24-10.98-10.697-4.812-10.696-4.813-18.804 13.429M95 158.708l-6.5 4.649-10.4 7.518-10.399 7.518 3.899 1.665 3.9 1.665L99 192.488l23.5 10.766 30.5 13.973 30.5 13.972 9.384 4.401 9.384 4.4h2.666l16.507-11.75 16.508-11.75.025-.535.026-.534-10.75-4.873-10.75-4.873-20.5-9.403-20.5-9.403-9.5-4.377-9.5-4.376-26.373-12.063L103.755 154l-1.128.029-1.127.03-6.5 4.649m-14 54.945-11.5 8.479-1.5.877-1.5.878 1.5 1.5 1.5 1.5 17.5 7.957 17.5 7.957 8.598 3.984 8.599 3.984 2.106.668 2.105.669 6.296-4.878 6.296-4.878 6.25-4.32 6.25-4.32v-2.442l-6.75-3.055-6.75-3.055-22-10.077-22-10.078-.5.086-.5.086-11.5 8.478m1.789 2.254L72.078 223.5l-.039.638-.039.638 18.75 8.518 18.75 8.518 7.633 3.515 7.632 3.516 11.181-8.024 11.18-8.024-10.813-4.977-10.813-4.976-8.5-3.828-8.5-3.827-7.5-3.437-7.5-3.436-10.711 7.593"/></svg>